Genre:Animation
Language:English
Link: http://www.amazon.com/dp/B003Z6HSKQ/
Source:DVDR-INSECTS

General
Complete name :Care.Bears.The.Giving.Festival.2010.DvDRip.H264.Feel-Free
Format : MPEG-4
Format profile : Base Media
Codec ID : mp42
File size : 579 MiB
Duration : 1h 7mn
Overall bit rate : 1 196 Kbps
Video #1
Codec ID : avc1
Codec ID/Info : Advanced Video Coding
Duration : 1h 7mn
Bit rate mode : Variable
Bit rate : 716 Kbps
Width : 720 pixels
Height : 384 pixels
Display aspect ratio : 1.875
Frame rate mode : Constant
Frame rate : 23.976 fps
Resolution : 24 bits
Colorimetry : 4:2:0
Scan type : Progressive
Bits/(Pixel*Frame) : 0.108
Stream size : 347 MiB (60%)
Audio #2
ID : 2
Format : AAC
Format/Info : Advanced Audio Codec
Format version : Version 4
Format profile : LC
Format settings, SBR : No
Codec ID : 40
Duration : 1h 7mn
Bit rate mode : Constant
Bit rate : 476 Kbps
Nominal bit rate : 480 Kbps
Channel(s) : 6 channels
Channel positions : Front: L C R, Rear: L R, LFE
Sampling rate : 48.0 KHz
Resolution : 16 bits
Stream size : 231 MiB (40%)

Plot:
Care Power On! Join Funshine, Share, Cheer and the whole Care Power Team as they organize
the annual Giving Festival in this adorable tale!

